<?xml version="1.0" standalone="no"?>
<!DOCTYPE svg PUBLIC "-//W3C//DTD SVG 1.1//EN" "http://www.w3.org/Graphics/SVG/1.1/DTD/svg11.dtd" >
<svg xmlns="http://www.w3.org/2000/svg" xmlns:xlink="http://www.w3.org/1999/xlink" version="1.1">
<metadata>
Created by FontForge 20170731 at Wed Jun  5 20:34:25 2002
 By Aleksey,,,
Copyright (c) 1989, 1990, 2002 Adobe Systems Incorporated.  All Rights Reserved. (c) 1981, 2002 Heidelberger Druckmaschinen AG. All rights reserved.
</metadata>
<defs>
<font id="TradeGothicLTStd" horiz-adv-x="500" >
  <font-face 
    font-family="Trade Gothic LT Std"
    font-weight="400"
    font-stretch="normal"
    units-per-em="1000"
    panose-1="0 0 5 0 0 0 0 0 0 0"
    ascent="800"
    descent="-200"
    x-height="520"
    cap-height="722"
    bbox="-167 -224 1000 960"
    underline-thickness="50"
    underline-position="-200"
    unicode-range="U+0020-FB02"
  />
<missing-glyph 
d="M0 0v700h500v-700h-500zM250 395l170 255h-340zM280 350l170 -255v510zM80 50h340l-170 255zM50 605v-510l170 255z" />
    <glyph glyph-name="fi" unicode="fi" horiz-adv-x="556" 
d="M174 0h-72v458h-88v62h88v59q0 88 30 120.5t97 32.5q11 0 64 -5v-64q-4 0 -23.5 3.5t-28.5 3.5q-37 0 -52 -15.5t-15 -58.5v-76h113v-62h-113v-458zM397 0v520h72v-520h-72zM397 732h72v-86h-72v86z" />
    <glyph glyph-name="fl" unicode="fl" horiz-adv-x="556" 
d="M174 0h-72v458h-88v62h88v59q0 88 30 120.5t97 32.5q11 0 64 -5v-64q-4 0 -23.5 3.5t-28.5 3.5q-37 0 -52 -15.5t-15 -58.5v-76h113v-62h-113v-458zM397 722h72v-722h-72v722z" />
    <glyph glyph-name=".notdef" 
d="M0 0v700h500v-700h-500zM250 395l170 255h-340zM280 350l170 -255v510zM80 50h340l-170 255zM50 605v-510l170 255z" />
    <glyph glyph-name=".null" horiz-adv-x="0" 
 />
    <glyph glyph-name="nonmarkingreturn" horiz-adv-x="333" 
 />
    <glyph glyph-name="space" unicode=" " horiz-adv-x="305" 
 />
    <glyph glyph-name="exclam" unicode="!" horiz-adv-x="333" 
d="M113 722h106l-21 -494h-64zM117 110h98v-110h-98v110z" />
    <glyph glyph-name="quotedbl" unicode="&#x22;" horiz-adv-x="333" 
d="M76 452v270h62v-270h-62zM195 452v270h62v-270h-62z" />
    <glyph glyph-name="numbersign" unicode="#" horiz-adv-x="611" 
d="M250 438l-20 -152h135l21 152h-136zM222 230l-31 -230h-62l31 230h-99v56h107l20 152h-99v56h107l31 228h62l-31 -228h136l30 228h62l-30 -228h94v-56h-102l-21 -152h95v-56h-103l-31 -230h-62l31 230h-135z" />
    <glyph glyph-name="dollar" unicode="$" horiz-adv-x="611" 
d="M275 417v243q-60 1 -96 -29.5t-34 -80.5q0 -107 130 -133zM343 322v-260q57 3 98.5 36.5t41.5 85.5q0 31 -11.5 55t-34 39.5t-42.5 24.5t-52 19zM275 722v77h68v-77q57 -4 106.5 -38.5t78.5 -79.5l-52 -42q-22 37 -58 64t-75 34v-261q112 -36 162 -81.5t50 -127.5
t-62.5 -136t-149.5 -54v-124h-68v124q-111 2 -220 131l58 44q29 -42 72.5 -76t89.5 -37v279q-33 8 -63 20t-64 34.5t-54.5 59t-20.5 83.5q0 88 59.5 136t142.5 48z" />
    <glyph glyph-name="percent" unicode="%" horiz-adv-x="889" 
d="M662 62q45 0 75 29t30 75t-30 75t-75 29t-75 -29t-30 -75t30 -75t75 -29zM662 0q-70 0 -118.5 48t-48.5 118t48.5 118t118.5 48t118.5 -48t48.5 -118t-48.5 -118t-118.5 -48zM227 390q-70 0 -118.5 48t-48.5 118t48.5 118t118.5 48t118.5 -48t48.5 -118t-48.5 -118
t-118.5 -48zM227 452q45 0 75 29t30 75t-30 75t-75 29t-75 -29t-30 -75t30 -75t75 -29zM207 -10l415 742h59l-415 -742h-59z" />
    <glyph glyph-name="ampersand" unicode="&#x26;" horiz-adv-x="667" 
d="M224 585q0 -50 42 -129q44 28 76 65.5t32 75.5q0 32 -21.5 52.5t-50.5 20.5q-37 0 -57.5 -25.5t-20.5 -59.5zM530 364l66 -16q-11 -57 -33 -117.5t-48 -97.5q22 -24 60 -42.5t59 -18.5v-72h-26q-27 0 -69 21t-73 51q-76 -82 -206 -82q-88 0 -152 58t-64 149
q0 119 157 218q-23 35 -40 83.5t-17 89.5q0 63 44 103.5t118 40.5q64 0 106 -36t42 -98q0 -30 -13.5 -58.5t-39 -55t-46.5 -44t-53 -40.5q56 -101 163 -218q18 23 37 74.5t28 107.5zM124 192q0 -64 44 -99t102 -35q84 0 146 60q-112 129 -182 242q-53 -35 -81.5 -71.5
t-28.5 -96.5z" />
    <glyph glyph-name="quotesingle" unicode="'" horiz-adv-x="222" 
d="M80 452v270h62v-270h-62z" />
    <glyph glyph-name="parenleft" unicode="(" horiz-adv-x="333" 
d="M203 732h78q-73 -99 -108 -196t-35 -215q0 -204 142 -405h-74q-140 185 -140 410q0 224 137 406z" />
    <glyph glyph-name="parenright" unicode=")" horiz-adv-x="333" 
d="M130 -84h-78q73 99 108 196t35 215q0 204 -142 405h74q140 -185 140 -410q0 -224 -137 -406z" />
    <glyph glyph-name="asterisk" unicode="*" 
d="M222 544l-148 23l18 65l137 -65l6 4l-22 151h67l-18 -149l7 -6l132 69l25 -67l-149 -31l-3 -8l106 -106l-54 -42l-73 134h-8l-73 -132l-52 39l104 114z" />
    <glyph glyph-name="plus" unicode="+" horiz-adv-x="600" 
d="M269 291v229h62v-229h229v-62h-229v-229h-62v229h-229v62h229z" />
    <glyph glyph-name="comma" unicode="," horiz-adv-x="305" 
d="M201 110v-110l-63 -148h-42l47 148h-40v110h98z" />
    <glyph glyph-name="hyphen" unicode="-" horiz-adv-x="333" 
d="M292 229h-252v62h252v-62z" />
    <glyph glyph-name="period" unicode="." horiz-adv-x="305" 
d="M103 110h98v-110h-98v110z" />
    <glyph glyph-name="slash" unicode="/" horiz-adv-x="278" 
d="M225 732h61l-234 -742h-60z" />
    <glyph glyph-name="zero" unicode="0" horiz-adv-x="611" 
d="M50 361q0 371 255 371t255 -371t-255 -371t-255 371zM126 361q0 -161 44.5 -235t134.5 -74t134.5 74t44.5 235t-44.5 235t-134.5 74t-134.5 -74t-44.5 -235z" />
    <glyph glyph-name="one" unicode="1" horiz-adv-x="611" 
d="M475 0h-320v62h125v587l-139 -14v47q113 34 139 50h72v-670h123v-62z" />
    <glyph glyph-name="two" unicode="2" horiz-adv-x="611" 
d="M535 62v-62h-469v76q34 69 88.5 125.5t105 92t97 70t75 77.5t28.5 97q0 63 -38.5 97.5t-107.5 34.5q-72 0 -116 -47t-54 -110l-71 16q47 203 243 203q93 0 156.5 -51.5t63.5 -140.5q0 -61 -33 -114t-84 -93.5t-104 -79t-102.5 -88t-70.5 -103.5h393z" />
    <glyph glyph-name="three" unicode="3" horiz-adv-x="611" 
d="M34 132l58 40q89 -120 198 -120q79 0 124.5 37.5t45.5 102.5q0 162 -204 162h-71v62h43q106 0 156 33.5t50 101.5q0 53 -39 86t-93 33q-61 0 -97 -23.5t-77 -76.5l-59 40q88 122 233 122q97 0 152.5 -47.5t55.5 -132.5q0 -60 -32 -100.5t-80 -59.5q138 -53 138 -192
q0 -93 -67 -151.5t-179 -58.5q-92 0 -157.5 43.5t-98.5 98.5z" />
    <glyph glyph-name="four" unicode="4" horiz-adv-x="611" 
d="M566 170h-124v-170h-72v170h-332v62l298 490h106v-490h124v-62zM367 646l-253 -414h256v414h-3z" />
    <glyph glyph-name="five" unicode="5" horiz-adv-x="611" 
d="M501 722v-62h-310l-18 -231q64 59 148 59q96 0 163.5 -64t67.5 -180q0 -44 -13.5 -86.5t-41.5 -81t-78.5 -62.5t-116.5 -24q-84 0 -136.5 37t-93.5 101l65 34q59 -110 167 -110q76 0 124 47.5t48 144.5q0 81 -44 131.5t-118 50.5q-51 0 -90.5 -29t-61.5 -80l-63 14
l32 391h370z" />
    <glyph glyph-name="six" unicode="6" horiz-adv-x="611" 
d="M512 690l-31 -61q-52 41 -123 41q-93 0 -157 -77.5t-65 -224.5q39 41 84.5 63.5t113.5 22.5q88 0 152.5 -61t64.5 -171t-68.5 -171t-164.5 -61q-258 0 -258 334q0 178 77.5 293t218.5 115q54 0 96 -12.5t60 -29.5zM475 220q0 80 -45 126t-106 46q-67 0 -124.5 -46.5
t-61.5 -107.5q3 -79 50.5 -132.5t123.5 -53.5q75 0 119 46.5t44 121.5z" />
    <glyph glyph-name="seven" unicode="7" horiz-adv-x="611" 
d="M440 660h-366v62h458v-44l-305 -678h-84z" />
    <glyph glyph-name="eight" unicode="8" horiz-adv-x="611" 
d="M568 188q0 -87 -68 -142.5t-195 -55.5t-195 55.5t-68 142.5q0 123 158 196v2q-60 23 -94 66.5t-34 99.5q0 86 65 133t168 47t168 -47t65 -133q0 -56 -34 -99.5t-94 -66.5v-2q69 -25 113.5 -75.5t44.5 -120.5zM118 188q0 -54 48 -95t139 -41t139 41t48 95q0 58 -51 94.5
t-149 69.5q-40 -17 -65.5 -30.5t-53.5 -33.5t-41.5 -45t-13.5 -55zM462 556q0 56 -46 85t-111 29t-111 -29t-46 -85q0 -36 28.5 -66.5t60.5 -46.5t68 -26q66 16 111.5 53t45.5 86z" />
    <glyph glyph-name="nine" unicode="9" horiz-adv-x="611" 
d="M99 32l31 61q52 -41 123 -41q90 0 153 79t69 223q-39 -41 -84 -63.5t-114 -22.5q-88 0 -152.5 61t-64.5 171t68.5 171t164.5 61q258 0 258 -334q0 -178 -77.5 -293t-218.5 -115q-54 0 -96 12.5t-60 29.5zM136 502q0 -80 45 -126t106 -46q64 0 113 37.5t71 96.5
q-2 95 -48 150.5t-124 55.5q-75 0 -119 -46.5t-44 -121.5z" />
    <glyph glyph-name="colon" unicode=":" horiz-adv-x="305" 
d="M201 0h-98v110h98v-110zM201 290h-98v110h98v-110z" />
    <glyph glyph-name="semicolon" unicode=";" horiz-adv-x="305" 
d="M201 110v-110l-63 -148h-42l47 148h-40v110h98zM201 290h-98v110h98v-110z" />
    <glyph glyph-name="less" unicode="&#x3c;" horiz-adv-x="600" 
d="M554 62v-62l-508 232v56l508 232v-62l-436 -198z" />
    <glyph glyph-name="equal" unicode="=" horiz-adv-x="600" 
d="M560 393v-62h-520v62h520zM560 189v-62h-520v62h520z" />
    <glyph glyph-name="greater" unicode="&#x3e;" horiz-adv-x="600" 
d="M46 62l436 198l-436 198v62l508 -231v-58l-508 -231v62z" />
    <glyph glyph-name="question" unicode="?" horiz-adv-x="444" 
d="M220 228h-68v55q0 51 23.5 94t51.5 69t51.5 62.5t23.5 75.5q0 34 -21 60t-63 26q-34 0 -58.5 -18t-46.5 -59l-60 29q50 110 163 110q67 0 114.5 -41t47.5 -111q0 -36 -16.5 -69.5t-39.5 -60t-46 -51.5t-39.5 -55t-16.5 -60v-56zM135 110h98v-110h-98v110z" />
    <glyph glyph-name="at" unicode="@" horiz-adv-x="800" 
d="M270 308q0 -45 17.5 -71.5t50.5 -26.5q65 0 113.5 66.5t48.5 132.5q0 45 -21.5 68.5t-50.5 23.5q-67 0 -112.5 -63t-45.5 -130zM532 494l20 60h67l-80 -275q-10 -38 -10 -49q0 -25 22 -25q55 0 98 66.5t43 142.5q0 117 -80 185.5t-197 68.5q-130 0 -214.5 -89.5
t-84.5 -220.5t86.5 -217.5t212.5 -86.5q76 0 140.5 28t106.5 80h76q-47 -83 -134 -127.5t-189 -44.5q-155 0 -263 107t-108 261q0 157 109 265.5t262 108.5q142 0 241.5 -87t99.5 -220q0 -69 -23 -126t-58.5 -90.5t-74.5 -51t-74 -17.5q-29 0 -48.5 18t-21.5 44l-2 -1
q-55 -61 -119 -61q-63 0 -104 46t-41 112q0 105 64 189t158 84q85 0 120 -77z" />
    <glyph glyph-name="A" unicode="A" horiz-adv-x="611" 
d="M300 666l-104 -372h219l-104 372h-11zM108 0h-84l222 722h119l222 -722h-84l-68 226h-259z" />
    <glyph glyph-name="B" unicode="B" horiz-adv-x="667" 
d="M108 0v722h266q92 0 147 -51t55 -127q0 -124 -122 -166l1 -2q61 -15 100 -65t39 -117q0 -88 -62 -141t-200 -53h-224zM188 344v-276h150q89 0 132.5 31.5t43.5 98.5q0 68 -51 107t-137 39h-138zM188 654v-242h140q84 0 126 36t42 87q0 119 -136 119h-172z" />
    <glyph glyph-name="C" unicode="C" horiz-adv-x="611" 
d="M500 230l72 -14q-54 -226 -254 -226q-126 0 -201 93.5t-75 277.5q0 176 72.5 273.5t203.5 97.5q193 0 244 -210l-74 -22q-21 82 -62 123t-118 41q-82 0 -134 -77t-52 -226q0 -152 54 -227.5t148 -75.5q76 0 116.5 47t59.5 125z" />
    <glyph glyph-name="D" unicode="D" horiz-adv-x="667" 
d="M180 654v-586h108q252 0 252 293q0 152 -65.5 222.5t-182.5 70.5h-112zM100 0v722h194q150 0 238 -93.5t88 -267.5q0 -164 -86 -262.5t-244 -98.5h-190z" />
    <glyph glyph-name="E" unicode="E" horiz-adv-x="611" 
d="M108 722h433v-68h-353v-242h251v-68h-251v-276h373v-68h-453v722z" />
    <glyph glyph-name="F" unicode="F" horiz-adv-x="556" 
d="M100 722h428v-68h-348v-242h258v-68h-258v-344h-80v722z" />
    <glyph glyph-name="G" unicode="G" horiz-adv-x="667" 
d="M344 347h243v-347h-66v66h-2q-55 -76 -189 -76q-128 0 -205 94t-77 277t77 277t205 94q199 0 260 -212l-76 -15q-26 84 -70.5 121.5t-109.5 37.5q-90 0 -148 -71t-58 -232t58 -232t148 -71q85 0 129 45t44 115v61h-163v68z" />
    <glyph glyph-name="H" unicode="H" horiz-adv-x="722" 
d="M534 722h80v-722h-80v344h-346v-344h-80v722h80v-310h346v310z" />
    <glyph glyph-name="I" unicode="I" horiz-adv-x="333" 
d="M126 722h80v-722h-80v722z" />
    <glyph glyph-name="J" unicode="J" horiz-adv-x="444" 
d="M264 722h80v-536q0 -196 -166 -196q-98 0 -170 93l60 39q40 -64 108 -64q88 0 88 107v557z" />
    <glyph glyph-name="K" unicode="K" horiz-adv-x="667" 
d="M196 242v-242h-80v722h80v-375h2l299 375h95l-224 -272l251 -450h-91l-215 384z" />
    <glyph glyph-name="L" unicode="L" horiz-adv-x="556" 
d="M530 0h-422v722h80v-654h342v-68z" />
    <glyph glyph-name="M" unicode="M" horiz-adv-x="833" 
d="M725 0h-72v660h-3l-202 -660h-62l-203 660h-3v-660h-72v722h124l184 -584h2l181 584h126v-722z" />
    <glyph glyph-name="N" unicode="N" horiz-adv-x="722" 
d="M180 0h-72v722h115l315 -556h4v556h72v-722h-66l-366 644h-2v-644z" />
    <glyph glyph-name="O" unicode="O" horiz-adv-x="667" 
d="M131 361q0 -151 52.5 -227t149.5 -76t149.5 76t52.5 227t-52.5 227t-149.5 76t-149.5 -76t-52.5 -227zM51 361q0 179 74 275t208 96t208 -96t74 -275t-74 -275t-208 -96t-208 96t-74 275z" />
    <glyph glyph-name="P" unicode="P" horiz-adv-x="611" 
d="M180 654v-264h136q96 0 136.5 32.5t40.5 99.5q0 132 -159 132h-154zM180 0h-80v722h252q110 0 165.5 -55.5t55.5 -146.5q0 -93 -66 -145.5t-199 -52.5h-128v-322z" />
    <glyph glyph-name="Q" unicode="Q" horiz-adv-x="667" 
d="M650 20v-78q-63 0 -95.5 21.5t-64.5 73.5q-64 -47 -157 -47q-134 0 -208 96t-74 275t74 275t208 96t208 -96t74 -275t-74 -275q35 -66 109 -66zM362 157v77q50 -7 80.5 -23.5t54.5 -50.5q38 73 38 201q0 151 -52.5 227t-149.5 76t-149.5 -76t-52.5 -227t52.5 -227
t149.5 -76q70 0 117 40q-19 28 -38 41.5t-50 17.5z" />
    <glyph glyph-name="R" unicode="R" horiz-adv-x="667" 
d="M180 654v-258h145q168 0 168 132q0 69 -43 97.5t-126 28.5h-144zM180 0h-80v722h232q116 0 178.5 -49.5t62.5 -140.5q0 -141 -144 -188l153 -344h-87l-146 328h-169v-328z" />
    <glyph glyph-name="S" unicode="S" horiz-adv-x="611" 
d="M520 554l-72 -16q-14 56 -57.5 91t-110.5 35q-63 0 -98.5 -29t-36.5 -83q0 -32 22 -56.5t57.5 -41.5t79 -32.5t87 -34t79.5 -41.5t58.5 -60t22.5 -84q0 -90 -58 -151t-185 -61q-56 0 -100.5 16.5t-74.5 46.5t-48 58.5t-35 66.5l73 26q56 -146 189 -146q77 0 118 36t41 94
q0 50 -42 85t-101.5 56t-119 44.5t-101.5 66.5t-42 106q0 79 60.5 132.5t156.5 53.5q86 0 148 -45t90 -133z" />
    <glyph glyph-name="T" unicode="T" horiz-adv-x="556" 
d="M534 654h-216v-654h-80v654h-216v68h512v-68z" />
    <glyph glyph-name="U" unicode="U" horiz-adv-x="722" 
d="M108 722h80v-510q0 -66 45.5 -110t127.5 -44t127.5 44t45.5 110v510h80v-504q0 -106 -69.5 -167t-183.5 -61t-183.5 61t-69.5 167v504z" />
    <glyph glyph-name="V" unicode="V" horiz-adv-x="556" 
d="M241 0l-223 722h80l178 -592h2l179 592h81l-224 -722h-73z" />
    <glyph glyph-name="W" unicode="W" horiz-adv-x="833" 
d="M202 0l-174 722h76l134 -576h2l140 576h71l144 -576h2l132 576h76l-171 -722h-71l-148 584h-2l-140 -584h-71z" />
    <glyph glyph-name="X" unicode="X" horiz-adv-x="556" 
d="M276 298l-170 -298h-92l216 377l-202 345h92l155 -265l152 265h92l-197 -345l220 -377h-92z" />
    <glyph glyph-name="Y" unicode="Y" horiz-adv-x="556" 
d="M238 0v304l-222 418h88l174 -331l174 331h88l-222 -418v-304h-80z" />
    <glyph glyph-name="Z" unicode="Z" horiz-adv-x="556" 
d="M511 68v-68h-466v58l362 596h-329v68h429v-52l-368 -602h372z" />
    <glyph glyph-name="bracketleft" unicode="[" horiz-adv-x="333" 
d="M76 -74v796h204v-42h-132v-712h132v-42h-204z" />
    <glyph glyph-name="backslash" unicode="\" horiz-adv-x="278" 
d="M-8 732h61l233 -742h-60z" />
    <glyph glyph-name="bracketright" unicode="]" horiz-adv-x="333" 
d="M257 722v-796h-204v42h132v712h-132v42h204z" />
    <glyph glyph-name="asciicircum" unicode="^" horiz-adv-x="600" 
d="M111 279h-64l224 443h58l224 -443h-63l-191 375z" />
    <glyph glyph-name="underscore" unicode="_" 
d="M500 -125h-500v50h500v-50z" />
    <glyph glyph-name="grave" unicode="`" horiz-adv-x="278" 
d="M6 722h109l89 -142h-67z" />
    <glyph glyph-name="a" unicode="a" 
d="M120 387l-63 33q61 110 195 110q75 0 127.5 -38.5t52.5 -117.5v-262q0 -66 12 -112h-74l-8 72q-74 -82 -172 -82q-63 0 -105.5 37.5t-42.5 105.5q0 85 72 133t246 79v28q0 95 -107 95q-54 0 -87 -24.5t-46 -56.5zM360 138v143q-246 -43 -246 -149q0 -34 27 -57t59 -23
q38 0 83 24.5t77 61.5z" />
    <glyph glyph-name="b" unicode="b" horiz-adv-x="556" 
d="M88 722h72v-252l4 2q70 58 137 58q35 0 70 -14.5t67 -44t52 -84.5t20 -127q0 -74 -20 -129t-52.5 -84.5t-68 -43t-72.5 -13.5q-80 0 -150 65l-13 -55h-50q4 25 4 114v608zM160 396v-274q39 -38 68 -54t63 -16q68 0 107.5 53t39.5 151q0 212 -147 212q-66 0 -131 -72z" />
    <glyph glyph-name="c" unicode="c" 
d="M443 389l-67 -24q-33 103 -123 103q-67 0 -104 -54.5t-37 -153.5t37 -153.5t104 -54.5q50 0 81.5 20.5t61.5 75.5l58 -26q-42 -71 -85 -101.5t-116 -30.5q-98 0 -155.5 72.5t-57.5 197.5t57.5 197.5t155.5 72.5q75 0 118.5 -36.5t71.5 -104.5z" />
    <glyph glyph-name="d" unicode="d" horiz-adv-x="556" 
d="M396 722h72v-608q0 -89 4 -114h-66l-10 51q-19 -26 -56 -43.5t-81 -17.5q-37 0 -72.5 13.5t-68 43t-52.5 84.5t-20 129q0 72 20 127t52 84.5t67 44t70 14.5q67 0 137 -58l4 -2v252zM396 122v274q-65 72 -131 72q-147 0 -147 -212q0 -98 39.5 -151t107.5 -53q34 0 63 16
t68 54z" />
    <glyph glyph-name="e" unicode="e" 
d="M410 140l56 -29q-32 -56 -76.5 -88.5t-123.5 -32.5q-95 0 -160.5 68t-65.5 202q0 125 57.5 197.5t154.5 72.5q87 0 142.5 -59t55.5 -177v-48h-338q0 -85 44.5 -139.5t109.5 -54.5q95 0 144 88zM114 308h264q0 73 -33 116.5t-91 43.5q-64 0 -99.5 -43t-40.5 -117z" />
    <glyph glyph-name="f" unicode="f" horiz-adv-x="333" 
d="M187 0h-72v458h-88v62h88v59q0 88 30 120.5t97 32.5q12 0 64 -5v-64q-4 0 -23.5 3.5t-28.5 3.5q-37 0 -52 -15.5t-15 -58.5v-76h113v-62h-113v-458z" />
    <glyph glyph-name="g" unicode="g" 
d="M480 540v-72q-52 0 -80 -14q36 -43 36 -106q0 -77 -55.5 -129.5t-134.5 -52.5q-43 0 -92 14q-41 -12 -41 -48q0 -18 11.5 -28t31.5 -10q181 0 253 -34t72 -112q0 -61 -60.5 -100.5t-176.5 -39.5q-224 0 -224 126q0 37 21 59.5t67 46.5q-29 9 -47 29.5t-18 44.5
q0 30 16.5 48t53.5 41q-71 54 -71 145q0 81 56 131.5t141 50.5q78 0 129 -36q57 40 112 46zM413 -55q-1 39 -43.5 58t-136.5 19q-77 0 -111 -26.5t-34 -60.5q0 -33 34 -49t134 -16q68 0 112 19t45 56zM368 344q0 58 -33.5 91t-98.5 33q-60 0 -93 -33.5t-33 -86.5
q0 -52 37.5 -86t96.5 -34t91.5 33.5t32.5 82.5z" />
    <glyph glyph-name="h" unicode="h" horiz-adv-x="556" 
d="M89 722h72v-272h2q71 80 154 80q64 0 107 -37t43 -115v-378h-72v376q0 92 -85 92q-37 0 -78.5 -24t-70.5 -55v-389h-72v722z" />
    <glyph glyph-name="i" unicode="i" horiz-adv-x="278" 
d="M103 0v520h72v-520h-72zM103 732h72v-86h-72v86z" />
    <glyph glyph-name="j" unicode="j" horiz-adv-x="278" 
d="M117 520h72v-603q0 -48 -29 -78.5t-78 -30.5q-39 0 -60 12v59q20 -9 38 -9q31 0 44 11.5t13 40.5v598zM189 732v-86h-72v86h72z" />
    <glyph glyph-name="k" unicode="k" 
d="M84 0v722h72v-465h2l210 263h87l-153 -192l173 -328h-85l-138 266l-96 -110v-156h-72z" />
    <glyph glyph-name="l" unicode="l" horiz-adv-x="278" 
d="M103 722h72v-722h-72v722z" />
    <glyph glyph-name="m" unicode="m" horiz-adv-x="833" 
d="M154 0h-72v520h72v-69l4 4q67 75 151 75q49 0 83.5 -22.5t49.5 -59.5q77 82 165 82q143 0 143 -158v-372h-72v372q0 96 -81 96q-30 0 -59 -14t-44 -27t-42 -39v-388h-72v372q0 96 -81 96q-30 0 -59 -14t-44 -27t-42 -39v-388z" />
    <glyph glyph-name="n" unicode="n" horiz-adv-x="556" 
d="M89 520h72v-70h2q71 80 154 80q64 0 107 -37t43 -115v-378h-72v376q0 92 -85 92q-37 0 -78.5 -24t-70.5 -55v-389h-72v520z" />
    <glyph glyph-name="o" unicode="o" 
d="M391 260q0 99 -38 153.5t-103 54.5t-103 -54.5t-38 -153.5t38 -153.5t103 -54.5t103 54.5t38 153.5zM463 260q0 -118 -55.5 -194t-157.5 -76t-157.5 76t-55.5 194t55.5 194t157.5 76t157.5 -76t55.5 -194z" />
    <glyph glyph-name="p" unicode="p" horiz-adv-x="556" 
d="M160 -192h-72v712h72v-61h2q21 30 59.5 50.5t75.5 20.5t72.5 -13.5t68 -43t52.5 -84.5t20 -129q0 -72 -20 -127t-52 -84.5t-67 -44t-70 -14.5q-67 0 -137 58l-4 2v-242zM160 398v-274q65 -72 131 -72q147 0 147 212q0 98 -39.5 151t-107.5 53q-34 0 -63 -16t-68 -54z" />
    <glyph glyph-name="q" unicode="q" horiz-adv-x="556" 
d="M468 -192h-72v242l-4 -2q-70 -58 -137 -58q-35 0 -70 14.5t-67 44t-52 84.5t-20 127q0 74 20 129t52.5 84.5t68 43t72.5 13.5q88 0 138 -65l13 55h58v-712zM396 124v274q-39 38 -68 54t-63 16q-68 0 -107.5 -53t-39.5 -151q0 -212 147 -212q66 0 131 72z" />
    <glyph glyph-name="r" unicode="r" horiz-adv-x="333" 
d="M70 0v520h72v-103h2q32 57 70 84t99 27v-72q-65 -1 -104.5 -42.5t-66.5 -125.5v-288h-72z" />
    <glyph glyph-name="s" unicode="s" horiz-adv-x="444" 
d="M24 89l57 43q56 -80 149 -80q55 0 83.5 25t28.5 61t-31.5 58t-76.5 34t-90 26.5t-75.5 47.5t-28.5 86q2 67 49 104t123 36q51 -1 101.5 -26.5t76.5 -64.5l-50 -44q-31 38 -62 55.5t-72 17.5q-45 0 -69.5 -21t-24.5 -56q0 -31 31 -50t75.5 -31.5t89 -28t75.5 -50.5t31 -89
q0 -72 -53 -112t-129 -40q-62 0 -117.5 26t-90.5 73z" />
    <glyph glyph-name="t" unicode="t" horiz-adv-x="333" 
d="M18 520h85v171h72v-171h120v-62h-120v-370q0 -36 59 -36q32 0 64 5v-59q-26 -8 -84 -8q-60 0 -85.5 19t-25.5 67v382h-85v62z" />
    <glyph glyph-name="u" unicode="u" horiz-adv-x="556" 
d="M467 0h-72v70h-2q-71 -80 -154 -80q-64 0 -107 37t-43 115v378h72v-376q0 -92 85 -92q37 0 78.5 24t70.5 55v389h72v-520z" />
    <glyph glyph-name="v" unicode="v" horiz-adv-x="444" 
d="M428 520l-156 -520h-96l-160 520h73l132 -430h2l132 430h73z" />
    <glyph glyph-name="w" unicode="w" horiz-adv-x="667" 
d="M157 0l-141 520h73l105 -400h2l102 400h73l104 -402h2l101 402h73l-139 -520h-73l-104 402h-2l-103 -402h-73z" />
    <glyph glyph-name="x" unicode="x" horiz-adv-x="444" 
d="M105 520l114 -185l109 185h81l-146 -247l169 -273h-83l-130 213l-126 -213h-81l164 273l-152 247h81z" />
    <glyph glyph-name="y" unicode="y" horiz-adv-x="444" 
d="M352 520h76l-183 -566q-48 -146 -175 -146q-10 0 -52 6v59q30 -3 39 -3q109 0 136 124l-181 526h76l140 -397h2z" />
    <glyph glyph-name="z" unicode="z" horiz-adv-x="444" 
d="M414 62v-62h-384v52l284 406h-256v62h354v-52l-284 -406h286z" />
    <glyph glyph-name="braceleft" unicode="{" horiz-adv-x="333" 
d="M48 303v42q62 0 62 78v199q0 110 93 110h62v-42h-38q-45 0 -45 -56v-230q0 -67 -74 -79v-2q74 -12 74 -79v-230q0 -56 45 -56h38v-42h-62q-93 0 -93 110v199q0 78 -62 78z" />
    <glyph glyph-name="bar" unicode="|" horiz-adv-x="222" 
d="M80 -10v742h62v-742h-62z" />
    <glyph glyph-name="braceright" unicode="}" horiz-adv-x="333" 
d="M285 345v-42q-62 0 -62 -78v-199q0 -110 -93 -110h-62v42h38q45 0 45 56v230q0 67 74 79v2q-74 12 -74 79v230q0 56 -45 56h-38v42h62q93 0 93 -110v-199q0 -78 62 -78z" />
    <glyph glyph-name="asciitilde" unicode="~" horiz-adv-x="600" 
d="M495 329l39 -44q-22 -29 -35 -44.5t-38.5 -30t-54.5 -14.5q-38 0 -104 34t-113 34q-52 0 -84 -73l-39 45q49 90 128 90q41 0 115 -34q76 -34 98 -34q19 0 36.5 12t26.5 24t25 35z" />
    <glyph glyph-name="uni00A0" unicode="&#xa0;" horiz-adv-x="305" 
 />
    <glyph glyph-name="exclamdown" unicode="&#xa1;" horiz-adv-x="333" 
d="M220 -202h-106l21 494h64zM216 410h-98v110h98v-110z" />
    <glyph glyph-name="cent" unicode="&#xa2;" horiz-adv-x="611" 
d="M212 92l134 368q-19 8 -43 8q-67 0 -104 -54.5t-37 -153.5q0 -116 50 -168zM391 429l-133 -369q19 -8 45 -8q50 0 81.5 20.5t61.5 75.5l58 -26q-42 -71 -85 -101.5t-116 -30.5q-39 0 -67 11l-41 -112h-57l49 136q-97 69 -97 235q0 125 57.5 197.5t155.5 72.5q38 0 65 -9
l32 89h57l-41 -113q47 -34 77 -108l-67 -24q-12 40 -35 64z" />
    <glyph glyph-name="sterling" unicode="&#xa3;" horiz-adv-x="611" 
d="M350 390v-62h-144q6 -25 6 -68q0 -79 -28 -135q16 -8 58.5 -31.5t67 -32.5t48.5 -9q68 0 104.5 32.5t49.5 95.5l64 -12q-30 -178 -200 -178q-24 0 -48 4t-39.5 7.5t-40.5 14.5t-33 15t-35.5 19t-32.5 18q-48 -68 -120 -78v78q45 8 79 55t34 114q0 53 -7 91h-107v62h98
q-12 76 -12 118q0 103 58 163.5t162 60.5q182 0 226 -186l-68 -12q-8 26 -18 46t-27.5 42.5t-45 35t-63.5 12.5q-80 0 -114 -42t-34 -104q0 -46 10 -134h152z" />
    <glyph glyph-name="currency" unicode="&#xa4;" horiz-adv-x="611" 
d="M305 171q80 0 133 52t53 138q0 85 -53 137.5t-133 52.5t-133 -52.5t-53 -137.5q0 -86 53 -138t133 -52zM512 612l42 -42l-55 -55q54 -67 54 -154t-54 -154l55 -55l-42 -42l-56 56q-64 -53 -151 -53t-151 53l-56 -56l-42 42l55 55q-54 67 -54 154t54 154l-55 55l42 42
l56 -56q64 53 151 53t151 -53z" />
    <glyph glyph-name="yen" unicode="&#xa5;" horiz-adv-x="611" 
d="M339 234v-234h-68v234h-177v62h177v8l-42 80h-135v62h102l-147 276h72l184 -347l184 347h72l-147 -276h102v-62h-134l-43 -80v-8h177v-62h-177z" />
    <glyph glyph-name="brokenbar" unicode="&#xa6;" horiz-adv-x="222" 
d="M80 -10v280h62v-280h-62zM80 452v280h62v-280h-62z" />
    <glyph glyph-name="section" unicode="&#xa7;" 
d="M97 4l51 32q43 -66 102 -66q30 0 49.5 18t19.5 46q0 30 -40.5 80.5t-89 97t-89.5 100t-42 86.5q0 47 30.5 75t89.5 31q-6 7 -18.5 23t-17 22t-11.5 18.5t-9 24.5t-2 28q0 46 36 79t92 33q44 0 76.5 -19t69.5 -64l-48 -27l-6 8l-10 10l-10.5 10.5t-13.5 11t-15 8
t-18.5 6.5t-20.5 2q-29 0 -46.5 -17t-17.5 -41q0 -22 18.5 -45.5t101.5 -106.5q84 -84 109 -120.5t25 -79.5q0 -47 -30.5 -74t-78.5 -34q54 -62 54 -124q0 -48 -36 -84t-101 -36q-50 0 -90.5 24t-62.5 64zM186 456q-25 0 -42.5 -16t-17.5 -39q0 -32 72 -107q6 -7 10 -11
q42 -45 64 -60t44 -15q24 0 41 15.5t17 40.5q0 40 -84 124q-44 44 -63 56t-41 12z" />
    <glyph glyph-name="dieresis" unicode="&#xa8;" horiz-adv-x="278" 
d="M262 590h-88v94h88v-94zM104 590h-88v94h88v-94z" />
    <glyph glyph-name="copyright" unicode="&#xa9;" horiz-adv-x="800" 
d="M529 292h68q-15 -72 -65 -115t-119 -43q-98 0 -158 65t-60 164t58 162.5t157 63.5q73 0 124 -40.5t62 -112.5h-67q-8 43 -40 68t-78 25q-69 0 -106.5 -45.5t-37.5 -119.5q0 -72 40 -121t106 -49q47 0 78.5 27t37.5 71zM24 362q0 158 111 264t266 106q154 0 264.5 -106.5
t110.5 -263.5q0 -159 -110.5 -265.5t-264.5 -106.5q-155 0 -266 106.5t-111 265.5zM704 362q0 132 -87.5 221t-215.5 89q-129 0 -217 -89t-88 -221q0 -135 87.5 -223.5t217.5 -88.5q129 0 216 88.5t87 223.5z" />
    <glyph glyph-name="ordfeminine" unicode="&#xaa;" horiz-adv-x="300" 
d="M66 642l-41 24q40 66 127 66q49 0 83.5 -23t34.5 -71v-157q0 -41 8 -67h-53l-6 35q-59 -41 -107 -41q-42 0 -70 22.5t-28 63.5q0 51 47 81.5t155 49.5v13q0 48 -64 48q-67 0 -86 -44zM216 497v82q-148 -28 -148 -86q0 -16 13 -27.5t35 -11.5q53 0 100 43z" />
    <glyph glyph-name="guillemotleft" unicode="&#xab;" 
d="M210 418h70l-129 -158l129 -158h-68l-132 158zM350 418h70l-129 -158l129 -158h-68l-132 158z" />
    <glyph glyph-name="logicalnot" unicode="&#xac;" horiz-adv-x="600" 
d="M498 127v204h-458v62h520v-266h-62z" />
    <glyph glyph-name="uni00AD" unicode="&#xad;" horiz-adv-x="333" 
d="M292 229h-252v62h252v-62z" />
    <glyph glyph-name="registered" unicode="&#xae;" horiz-adv-x="800" 
d="M322 333v-186h-66v428h164q152 0 152 -122q0 -104 -112 -118l122 -188h-72l-114 186h-74zM322 521v-134h78q58 0 82 17t24 53q0 33 -20.5 48.5t-74.5 15.5h-89zM24 362q0 158 111 264t266 106q154 0 264.5 -106.5t110.5 -263.5q0 -159 -110.5 -265.5t-264.5 -106.5
q-155 0 -266 106.5t-111 265.5zM704 362q0 132 -87.5 221t-215.5 89q-129 0 -217 -89t-88 -221q0 -135 87.5 -223.5t217.5 -88.5q129 0 216 88.5t87 223.5z" />
    <glyph glyph-name="macron" unicode="&#xaf;" horiz-adv-x="278" 
d="M295 612h-312v60h312v-60z" />
    <glyph glyph-name="degree" unicode="&#xb0;" horiz-adv-x="400" 
d="M56 588q0 60 42 102t102 42t102 -42t42 -102t-42 -102t-102 -42t-102 42t-42 102zM104 588q0 -42 28 -71t68 -29t68 29t28 71t-28 71t-68 29t-68 -29t-28 -71z" />
    <glyph glyph-name="plusminus" unicode="&#xb1;" horiz-adv-x="600" 
d="M269 341v179h62v-179h229v-62h-229v-179h-62v179h-229v62h229zM40 0v62h520v-62h-520z" />
    <glyph glyph-name="twosuperior" unicode="&#xb2;" horiz-adv-x="366" 
d="M338 292h-310v54q26 49 72.5 88.5t85 60.5t67.5 50.5t29 64.5q0 32 -23.5 52t-65.5 20q-48 0 -77.5 -25.5t-40.5 -62.5l-46 16q16 53 58 87.5t109 34.5q64 0 102 -31t38 -85q0 -48 -32 -87t-72 -61.5t-85.5 -56.5t-64.5 -69h256v-50z" />
    <glyph glyph-name="threesuperior" unicode="&#xb3;" horiz-adv-x="366" 
d="M111 499v50h41q116 0 116 75q0 23 -23 40.5t-59 17.5q-41 0 -63.5 -11.5t-45.5 -39.5l-42 28q57 73 151 73q64 0 100 -28.5t36 -79.5q0 -73 -65 -95v-2q41 -13 61 -46.5t20 -69.5q0 -56 -43 -90.5t-116 -34.5q-60 0 -103 26t-64 58l40 32q49 -66 127 -66q50 0 77.5 20
t27.5 54q0 46 -29.5 67.5t-98.5 21.5h-45z" />
    <glyph glyph-name="acute" unicode="&#xb4;" horiz-adv-x="278" 
d="M163 722h109l-131 -142h-67z" />
    <glyph glyph-name="mu" unicode="&#xb5;" horiz-adv-x="556" 
d="M467 0h-72v70h-2q-71 -80 -154 -80q-43 0 -78 16v-198h-72v712h72v-376q0 -92 85 -92q37 0 78.5 24t70.5 55v389h72v-520z" />
    <glyph glyph-name="paragraph" unicode="&#xb6;" 
d="M219 -84v415q-90 0 -149.5 56t-59.5 136q0 97 59 148t166 51h277v-50h-71v-756h-60v756h-102v-756h-60z" />
    <glyph glyph-name="periodcentered" unicode="&#xb7;" horiz-adv-x="305" 
d="M90 259q0 27 17.5 45t44.5 18q26 0 44 -18.5t18 -44.5q0 -25 -18 -43t-44 -18q-27 0 -44.5 17.5t-17.5 43.5z" />
    <glyph glyph-name="cedilla" unicode="&#xb8;" horiz-adv-x="278" 
d="M127 0h48l-47 -58l2 -2q15 5 30 5q41 0 63 -24.5t21 -59.5q-1 -41 -32.5 -63t-88.5 -22q-48 0 -94 21l17 44q30 -19 66 -19q56 0 56 43q0 16 -11.5 27t-29.5 11q-26 0 -46 -8l-17 19z" />
    <glyph glyph-name="onesuperior" unicode="&#xb9;" horiz-adv-x="366" 
d="M165 732h54v-390h79v-50h-213v50h76v340l-85 -13v33q73 21 89 30z" />
    <glyph glyph-name="ordmasculine" unicode="&#xba;" horiz-adv-x="300" 
d="M70 572q0 -116 80 -116q39 0 59.5 30t20.5 84t-20.5 84t-59.5 30q-37 0 -58.5 -30t-21.5 -82zM12 570q0 75 37.5 118.5t100.5 43.5q64 0 101 -43t37 -119t-37 -119t-101 -43q-63 0 -100.5 43.5t-37.5 118.5z" />
    <glyph glyph-name="guillemotright" unicode="&#xbb;" 
d="M220 418h70l130 -158l-132 -158h-68l129 158zM80 418h70l130 -158l-132 -158h-68l129 158z" />
    <glyph glyph-name="onequarter" unicode="&#xbc;" horiz-adv-x="916" 
d="M868 102h-81v-102h-54v102h-208v45l185 287h77v-282h81v-50zM731 376l-145 -224h147v224h-2zM177 732h54v-390h79v-50h-213v50h76v340l-85 -13v33q73 21 89 30zM278 -10h-59l439 742h62z" />
    <glyph glyph-name="onehalf" unicode="&#xbd;" horiz-adv-x="916" 
d="M177 732h54v-390h79v-50h-213v50h76v340l-85 -13v33q73 21 89 30zM860 0h-310v54q26 49 72.5 88.5t85 60.5t67.5 50.5t29 64.5q0 32 -23.5 52t-65.5 20q-48 0 -77.5 -25.5t-40.5 -62.5l-46 16q16 53 58 87.5t109 34.5q64 0 102 -31t38 -85q0 -48 -32 -87t-72 -61.5
t-85.5 -56.5t-64.5 -69h256v-50zM258 -10h-59l439 742h62z" />
    <glyph glyph-name="threequarters" unicode="&#xbe;" horiz-adv-x="916" 
d="M868 102h-81v-102h-54v102h-208v45l185 287h77v-282h81v-50zM731 376l-145 -224h147v224h-2zM147 499v50h41q116 0 116 75q0 23 -23 40.5t-59 17.5q-41 0 -63.5 -11.5t-45.5 -39.5l-42 28q57 73 151 73q64 0 100 -28.5t36 -79.5q0 -73 -65 -95v-2q41 -13 61 -46.5
t20 -69.5q0 -56 -43 -90.5t-116 -34.5q-60 0 -103 26t-64 58l40 32q50 -66 127 -66q50 0 77.5 20t27.5 54q0 46 -29.5 67.5t-98.5 21.5h-45zM294 -10h-59l439 742h62z" />
    <glyph glyph-name="questiondown" unicode="&#xbf;" horiz-adv-x="444" 
d="M224 292h68v-55q0 -51 -23.5 -94t-51.5 -69t-51.5 -62.5t-23.5 -75.5q0 -34 21 -60t63 -26q34 0 58.5 18t46.5 59l60 -29q-50 -110 -163 -110q-67 0 -114.5 41t-47.5 111q0 36 16.5 69.5t39.5 60t46 51.5t39.5 55t16.5 60v56zM309 410h-98v110h98v-110z" />
    <glyph glyph-name="Agrave" unicode="&#xc0;" horiz-adv-x="611" 
d="M300 666l-104 -372h219l-104 372h-11zM108 0h-84l222 722h119l222 -722h-84l-68 226h-259zM173 902h109l89 -142h-67z" />
    <glyph glyph-name="Aacute" unicode="&#xc1;" horiz-adv-x="611" 
d="M300 666l-104 -372h219l-104 372h-11zM108 0h-84l222 722h119l222 -722h-84l-68 226h-259zM330 902h109l-131 -142h-67z" />
    <glyph glyph-name="Acircumflex" unicode="&#xc2;" horiz-adv-x="611" 
d="M300 666l-104 -372h219l-104 372h-11zM108 0h-84l222 722h119l222 -722h-84l-68 226h-259zM160 760l98 142h94l100 -142h-80l-67 94l-65 -94h-80z" />
    <glyph glyph-name="Atilde" unicode="&#xc3;" horiz-adv-x="611" 
d="M300 666l-104 -372h219l-104 372h-11zM108 0h-84l222 722h119l222 -722h-84l-68 226h-259zM427 885h50q-4 -40 -31.5 -73.5t-65.5 -33.5q-25 0 -78 19q-49 19 -75 19q-15 0 -28 -15t-14 -32h-50q5 48 32.5 78.5t74.5 30.5q29 0 73 -18q44 -19 65 -19q19 0 31.5 12
t15.5 32z" />
    <glyph glyph-name="Adieresis" unicode="&#xc4;" horiz-adv-x="611" 
d="M300 666l-104 -372h219l-104 372h-11zM108 0h-84l222 722h119l222 -722h-84l-68 226h-259zM429 770h-88v94h88v-94zM271 770h-88v94h88v-94z" />
    <glyph glyph-name="Aring" unicode="&#xc5;" horiz-adv-x="611" 
d="M300 666l-104 -372h219l-104 372h-11zM108 0h-84l222 722h119l222 -722h-84l-68 226h-259zM206 860q0 41 29.5 70.5t70.5 29.5t70.5 -29.5t29.5 -70.5t-29.5 -70.5t-70.5 -29.5t-70.5 29.5t-29.5 70.5zM250 860q0 -23 16.5 -39.5t39.5 -16.5t39.5 16.5t16.5 39.5
t-16.5 39.5t-39.5 16.5t-39.5 -16.5t-16.5 -39.5z" />
    <glyph glyph-name="AE" unicode="&#xc6;" horiz-adv-x="1000" 
d="M16 0l407 722h507v-68h-353v-242h251v-68h-251v-276h373v-68h-453v226h-266l-124 -226h-91zM270 294h227v372h-22z" />
    <glyph glyph-name="Ccedilla" unicode="&#xc7;" horiz-adv-x="611" 
d="M500 230l72 -14q-50 -211 -228 -225l-40 -49l2 -2q15 5 30 5q41 0 63 -24.5t21 -59.5q-1 -41 -32.5 -63t-88.5 -22q-48 0 -94 21l17 44q30 -19 66 -19q56 0 56 43q0 16 -11.5 27t-29.5 11q-26 0 -46 -8l-17 19l56 77q-117 8 -185.5 101.5t-68.5 268.5q0 176 72.5 273.5
t203.5 97.5q193 0 244 -210l-74 -22q-21 82 -62 123t-118 41q-82 0 -134 -77t-52 -226q0 -152 54 -227.5t148 -75.5q76 0 116.5 47t59.5 125z" />
    <glyph glyph-name="Egrave" unicode="&#xc8;" horiz-adv-x="611" 
d="M108 722h433v-68h-353v-242h251v-68h-251v-276h373v-68h-453v722zM201 902h109l89 -142h-67z" />
    <glyph glyph-name="Eacute" unicode="&#xc9;" horiz-adv-x="611" 
d="M108 722h433v-68h-353v-242h251v-68h-251v-276h373v-68h-453v722zM358 902h109l-131 -142h-67z" />
    <glyph glyph-name="Ecircumflex" unicode="&#xca;" horiz-adv-x="611" 
d="M108 722h433v-68h-353v-242h251v-68h-251v-276h373v-68h-453v722zM188 760l98 142h94l100 -142h-80l-67 94l-65 -94h-80z" />
    <glyph glyph-name="Edieresis" unicode="&#xcb;" horiz-adv-x="611" 
d="M108 722h433v-68h-353v-242h251v-68h-251v-276h373v-68h-453v722zM457 770h-88v94h88v-94zM299 770h-88v94h88v-94z" />
    <glyph glyph-name="Igrave" unicode="&#xcc;" horiz-adv-x="333" 
d="M126 722h80v-722h-80v722zM34 902h109l89 -142h-67z" />
    <glyph glyph-name="Iacute" unicode="&#xcd;" horiz-adv-x="333" 
d="M126 722h80v-722h-80v722zM191 902h109l-131 -142h-67z" />
    <glyph glyph-name="Icircumflex" unicode="&#xce;" horiz-adv-x="333" 
d="M126 722h80v-722h-80v722zM21 760l98 142h94l100 -142h-80l-67 94l-65 -94h-80z" />
    <glyph glyph-name="Idieresis" unicode="&#xcf;" horiz-adv-x="333" 
d="M126 722h80v-722h-80v722zM290 770h-88v94h88v-94zM132 770h-88v94h88v-94z" />
    <glyph glyph-name="Eth" unicode="&#xd0;" horiz-adv-x="667" 
d="M180 412h188v-68h-188v-276h108q252 0 252 293q0 152 -65.5 222.5t-182.5 70.5h-112v-242zM32 412h68v310h194q150 0 238 -93.5t88 -267.5q0 -164 -86 -262.5t-244 -98.5h-190v344h-68v68z" />
    <glyph glyph-name="Ntilde" unicode="&#xd1;" horiz-adv-x="722" 
d="M180 0h-72v722h115l315 -556h4v556h72v-722h-66l-366 644h-2v-644zM482 885h50q-4 -40 -31.5 -73.5t-65.5 -33.5q-25 0 -78 19q-49 19 -75 19q-15 0 -28 -15t-14 -32h-50q5 48 32.5 78.5t74.5 30.5q29 0 73 -18q44 -19 65 -19q19 0 31.5 12t15.5 32z" />
    <glyph glyph-name="Ograve" unicode="&#xd2;" horiz-adv-x="667" 
d="M131 361q0 -151 52.5 -227t149.5 -76t149.5 76t52.5 227t-52.5 227t-149.5 76t-149.5 -76t-52.5 -227zM51 361q0 179 74 275t208 96t208 -96t74 -275t-74 -275t-208 -96t-208 96t-74 275zM201 902h109l89 -142h-67z" />
    <glyph glyph-name="Oacute" unicode="&#xd3;" horiz-adv-x="667" 
d="M131 361q0 -151 52.5 -227t149.5 -76t149.5 76t52.5 227t-52.5 227t-149.5 76t-149.5 -76t-52.5 -227zM51 361q0 179 74 275t208 96t208 -96t74 -275t-74 -275t-208 -96t-208 96t-74 275zM358 902h109l-131 -142h-67z" />
    <glyph glyph-name="Ocircumflex" unicode="&#xd4;" horiz-adv-x="667" 
d="M131 361q0 -151 52.5 -227t149.5 -76t149.5 76t52.5 227t-52.5 227t-149.5 76t-149.5 -76t-52.5 -227zM51 361q0 179 74 275t208 96t208 -96t74 -275t-74 -275t-208 -96t-208 96t-74 275zM188 760l98 142h94l100 -142h-80l-67 94l-65 -94h-80z" />
    <glyph glyph-name="Otilde" unicode="&#xd5;" horiz-adv-x="667" 
d="M131 361q0 -151 52.5 -227t149.5 -76t149.5 76t52.5 227t-52.5 227t-149.5 76t-149.5 -76t-52.5 -227zM51 361q0 179 74 275t208 96t208 -96t74 -275t-74 -275t-208 -96t-208 96t-74 275zM455 885h50q-4 -40 -31.5 -73.5t-65.5 -33.5q-25 0 -78 19q-49 19 -75 19
q-15 0 -28 -15t-14 -32h-50q5 48 32.5 78.5t74.5 30.5q29 0 73 -18q44 -19 65 -19q19 0 31.5 12t15.5 32z" />
    <glyph glyph-name="Odieresis" unicode="&#xd6;" horiz-adv-x="667" 
d="M131 361q0 -151 52.5 -227t149.5 -76t149.5 76t52.5 227t-52.5 227t-149.5 76t-149.5 -76t-52.5 -227zM51 361q0 179 74 275t208 96t208 -96t74 -275t-74 -275t-208 -96t-208 96t-74 275zM457 770h-88v94h88v-94zM299 770h-88v94h88v-94z" />
    <glyph glyph-name="multiply" unicode="&#xd7;" horiz-adv-x="600" 
d="M300 302l216 218l44 -44l-216 -216l216 -216l-44 -44l-216 216l-216 -216l-44 44l216 216l-216 216l44 44z" />
    <glyph glyph-name="Oslash" unicode="&#xd8;" horiz-adv-x="667" 
d="M171 158l287 459q-49 47 -125 47q-97 0 -149.5 -76t-52.5 -227q0 -129 40 -203zM495 566l-288 -459q46 -49 126 -49q97 0 149.5 76t52.5 227q0 130 -40 205zM623 770l-83 -132q75 -97 75 -277q0 -179 -74 -275t-208 -96q-98 0 -166 54l-68 -108h-67l94 149
q-75 96 -75 276q0 179 74 275t208 96q99 0 164 -52l56 90h70z" />
    <glyph glyph-name="Ugrave" unicode="&#xd9;" horiz-adv-x="722" 
d="M108 722h80v-510q0 -66 45.5 -110t127.5 -44t127.5 44t45.5 110v510h80v-504q0 -106 -69.5 -167t-183.5 -61t-183.5 61t-69.5 167v504zM228 902h109l89 -142h-67z" />
    <glyph glyph-name="Uacute" unicode="&#xda;" horiz-adv-x="722" 
d="M108 722h80v-510q0 -66 45.5 -110t127.5 -44t127.5 44t45.5 110v510h80v-504q0 -106 -69.5 -167t-183.5 -61t-183.5 61t-69.5 167v504zM385 902h109l-131 -142h-67z" />
    <glyph glyph-name="Ucircumflex" unicode="&#xdb;" horiz-adv-x="722" 
d="M108 722h80v-510q0 -66 45.5 -110t127.5 -44t127.5 44t45.5 110v510h80v-504q0 -106 -69.5 -167t-183.5 -61t-183.5 61t-69.5 167v504zM215 760l98 142h94l100 -142h-80l-67 94l-65 -94h-80z" />
    <glyph glyph-name="Udieresis" unicode="&#xdc;" horiz-adv-x="722" 
d="M108 722h80v-510q0 -66 45.5 -110t127.5 -44t127.5 44t45.5 110v510h80v-504q0 -106 -69.5 -167t-183.5 -61t-183.5 61t-69.5 167v504zM484 770h-88v94h88v-94zM326 770h-88v94h88v-94z" />
    <glyph glyph-name="Yacute" unicode="&#xdd;" horiz-adv-x="556" 
d="M238 0v304l-222 418h88l174 -331l174 331h88l-222 -418v-304h-80zM302 902h109l-131 -142h-67z" />
    <glyph glyph-name="Thorn" unicode="&#xde;" horiz-adv-x="611" 
d="M180 514v-264h136q96 0 136.5 32.5t40.5 99.5q0 132 -159 132h-154zM180 0h-80v722h80v-140h172q110 0 165.5 -55.5t55.5 -146.5q0 -93 -66 -145.5t-199 -52.5h-128v-182z" />
    <glyph glyph-name="germandbls" unicode="&#xdf;" horiz-adv-x="556" 
d="M231 17l27 59q28 -24 72 -24q52 0 78 39t26 100q0 94 -46.5 135.5t-134.5 41.5v62h29q44 0 76 35t32 87q0 118 -112 118q-57 0 -83 -33t-29 -101v-536h-72v554q0 90 54 134t132 44q87 0 134.5 -48t47.5 -126q0 -107 -89 -151v-2q133 -39 133 -209q0 -95 -50 -150.5
t-120 -55.5q-61 0 -105 27z" />
    <glyph glyph-name="agrave" unicode="&#xe0;" 
d="M120 387l-63 33q61 110 195 110q75 0 127.5 -38.5t52.5 -117.5v-262q0 -66 12 -112h-74l-8 72q-74 -82 -172 -82q-63 0 -105.5 37.5t-42.5 105.5q0 85 72 133t246 79v28q0 95 -107 95q-54 0 -87 -24.5t-46 -56.5zM360 138v143q-246 -43 -246 -149q0 -34 27 -57t59 -23
q38 0 83 24.5t77 61.5zM112 722h109l89 -142h-67z" />
    <glyph glyph-name="aacute" unicode="&#xe1;" 
d="M120 387l-63 33q61 110 195 110q75 0 127.5 -38.5t52.5 -117.5v-262q0 -66 12 -112h-74l-8 72q-74 -82 -172 -82q-63 0 -105.5 37.5t-42.5 105.5q0 85 72 133t246 79v28q0 95 -107 95q-54 0 -87 -24.5t-46 -56.5zM360 138v143q-246 -43 -246 -149q0 -34 27 -57t59 -23
q38 0 83 24.5t77 61.5zM269 722h109l-131 -142h-67z" />
    <glyph glyph-name="acircumflex" unicode="&#xe2;" 
d="M120 387l-63 33q61 110 195 110q75 0 127.5 -38.5t52.5 -117.5v-262q0 -66 12 -112h-74l-8 72q-74 -82 -172 -82q-63 0 -105.5 37.5t-42.5 105.5q0 85 72 133t246 79v28q0 95 -107 95q-54 0 -87 -24.5t-46 -56.5zM360 138v143q-246 -43 -246 -149q0 -34 27 -57t59 -23
q38 0 83 24.5t77 61.5zM99 580l98 142h94l100 -142h-80l-67 94l-65 -94h-80z" />
    <glyph glyph-name="atilde" unicode="&#xe3;" 
d="M120 387l-63 33q61 110 195 110q75 0 127.5 -38.5t52.5 -117.5v-262q0 -66 12 -112h-74l-8 72q-74 -82 -172 -82q-63 0 -105.5 37.5t-42.5 105.5q0 85 72 133t246 79v28q0 95 -107 95q-54 0 -87 -24.5t-46 -56.5zM360 138v143q-246 -43 -246 -149q0 -34 27 -57t59 -23
q38 0 83 24.5t77 61.5zM366 705h50q-4 -40 -31.5 -73.5t-65.5 -33.5q-25 0 -78 19q-49 19 -75 19q-15 0 -28 -15t-14 -32h-50q5 48 32.5 78.5t74.5 30.5q29 0 73 -18q44 -19 65 -19q19 0 31.5 12t15.5 32z" />
    <glyph glyph-name="adieresis" unicode="&#xe4;" 
d="M120 387l-63 33q61 110 195 110q75 0 127.5 -38.5t52.5 -117.5v-262q0 -66 12 -112h-74l-8 72q-74 -82 -172 -82q-63 0 -105.5 37.5t-42.5 105.5q0 85 72 133t246 79v28q0 95 -107 95q-54 0 -87 -24.5t-46 -56.5zM360 138v143q-246 -43 -246 -149q0 -34 27 -57t59 -23
q38 0 83 24.5t77 61.5zM368 590h-88v94h88v-94zM210 590h-88v94h88v-94z" />
    <glyph glyph-name="aring" unicode="&#xe5;" 
d="M120 387l-63 33q61 110 195 110q75 0 127.5 -38.5t52.5 -117.5v-262q0 -66 12 -112h-74l-8 72q-74 -82 -172 -82q-63 0 -105.5 37.5t-42.5 105.5q0 85 72 133t246 79v28q0 95 -107 95q-54 0 -87 -24.5t-46 -56.5zM360 138v143q-246 -43 -246 -149q0 -34 27 -57t59 -23
q38 0 83 24.5t77 61.5zM145 680q0 41 29.5 70.5t70.5 29.5t70.5 -29.5t29.5 -70.5t-29.5 -70.5t-70.5 -29.5t-70.5 29.5t-29.5 70.5zM189 680q0 -23 16.5 -39.5t39.5 -16.5t39.5 16.5t16.5 39.5t-16.5 39.5t-39.5 16.5t-39.5 -16.5t-16.5 -39.5z" />
    <glyph glyph-name="ae" unicode="&#xe6;" horiz-adv-x="778" 
d="M336 134v147q-46 -9 -81 -19.5t-72 -28t-57 -43t-20 -58.5q0 -35 25 -57.5t59 -22.5q46 0 88 26.5t58 55.5zM728 246h-320q0 -92 37.5 -143t110.5 -51q39 0 74 23.5t58 64.5l56 -29q-32 -56 -75 -88.5t-119 -32.5q-55 0 -98 18.5t-76 69.5q-53 -52 -98.5 -70t-101.5 -18
q-55 0 -98.5 36t-43.5 96q0 45 17.5 80.5t43.5 57.5t69 39.5t80.5 27t91.5 18.5v28q0 95 -98 95q-52 0 -84 -24.5t-45 -56.5l-61 33q25 48 73 79t113 31q105 0 150 -70q56 70 150 70q84 0 139 -59t55 -177v-48zM408 308h248q0 73 -34 116.5t-92 43.5q-119 0 -122 -160z" />
    <glyph glyph-name="ccedilla" unicode="&#xe7;" 
d="M443 389l-67 -24q-33 103 -123 103q-67 0 -104 -54.5t-37 -153.5t37 -153.5t104 -54.5q50 0 81.5 20.5t61.5 75.5l58 -26q-38 -64 -76.5 -95t-98.5 -36l-40 -49l2 -2q15 5 30 5q41 0 63 -24.5t21 -59.5q-1 -41 -32.5 -63t-88.5 -22q-48 0 -94 21l17 44q30 -19 66 -19
q56 0 56 43q0 16 -11.5 27t-29.5 11q-26 0 -46 -8l-17 19l56 77q-89 8 -140 79.5t-51 189.5q0 125 57.5 197.5t155.5 72.5q75 0 118.5 -36.5t71.5 -104.5z" />
    <glyph glyph-name="egrave" unicode="&#xe8;" 
d="M410 140l56 -29q-32 -56 -76.5 -88.5t-123.5 -32.5q-95 0 -160.5 68t-65.5 202q0 125 57.5 197.5t154.5 72.5q87 0 142.5 -59t55.5 -177v-48h-338q0 -85 44.5 -139.5t109.5 -54.5q95 0 144 88zM114 308h264q0 73 -33 116.5t-91 43.5q-64 0 -99.5 -43t-40.5 -117zM117 722
h109l89 -142h-67z" />
    <glyph glyph-name="eacute" unicode="&#xe9;" 
d="M410 140l56 -29q-32 -56 -76.5 -88.5t-123.5 -32.5q-95 0 -160.5 68t-65.5 202q0 125 57.5 197.5t154.5 72.5q87 0 142.5 -59t55.5 -177v-48h-338q0 -85 44.5 -139.5t109.5 -54.5q95 0 144 88zM114 308h264q0 73 -33 116.5t-91 43.5q-64 0 -99.5 -43t-40.5 -117zM274 722
h109l-131 -142h-67z" />
    <glyph glyph-name="ecircumflex" unicode="&#xea;" 
d="M410 140l56 -29q-32 -56 -76.5 -88.5t-123.5 -32.5q-95 0 -160.5 68t-65.5 202q0 125 57.5 197.5t154.5 72.5q87 0 142.5 -59t55.5 -177v-48h-338q0 -85 44.5 -139.5t109.5 -54.5q95 0 144 88zM114 308h264q0 73 -33 116.5t-91 43.5q-64 0 -99.5 -43t-40.5 -117zM104 580
l98 142h94l100 -142h-80l-67 94l-65 -94h-80z" />
    <glyph glyph-name="edieresis" unicode="&#xeb;" 
d="M410 140l56 -29q-32 -56 -76.5 -88.5t-123.5 -32.5q-95 0 -160.5 68t-65.5 202q0 125 57.5 197.5t154.5 72.5q87 0 142.5 -59t55.5 -177v-48h-338q0 -85 44.5 -139.5t109.5 -54.5q95 0 144 88zM114 308h264q0 73 -33 116.5t-91 43.5q-64 0 -99.5 -43t-40.5 -117zM373 590
h-88v94h88v-94zM215 590h-88v94h88v-94z" />
    <glyph glyph-name="igrave" unicode="&#xec;" horiz-adv-x="278" 
d="M103 0v520h72v-520h-72zM6 722h109l89 -142h-67z" />
    <glyph glyph-name="iacute" unicode="&#xed;" horiz-adv-x="278" 
d="M103 0v520h72v-520h-72zM163 722h109l-131 -142h-67z" />
    <glyph glyph-name="icircumflex" unicode="&#xee;" horiz-adv-x="278" 
d="M103 0v520h72v-520h-72zM-7 580l98 142h94l100 -142h-80l-67 94l-65 -94h-80z" />
    <glyph glyph-name="idieresis" unicode="&#xef;" horiz-adv-x="278" 
d="M103 0v520h72v-520h-72zM262 590h-88v94h88v-94zM104 590h-88v94h88v-94z" />
    <glyph glyph-name="eth" unicode="&#xf0;" 
d="M250 52q70 0 105.5 51.5t35.5 142.5q0 88 -36 139t-105 51t-105 -51t-36 -139q0 -91 35.5 -142.5t105.5 -51.5zM128 698l63 24q45 -28 85 -68l110 60l30 -50l-97 -55q65 -74 104.5 -166t39.5 -185q0 -121 -55 -194.5t-158 -73.5q-104 0 -158.5 68.5t-54.5 187.5
q0 116 54.5 184t158.5 68q29 0 74 -14q-20 43 -64 92l-106 -58l-34 48l101 55q-51 50 -93 77z" />
    <glyph glyph-name="ntilde" unicode="&#xf1;" horiz-adv-x="556" 
d="M89 520h72v-70h2q71 80 154 80q64 0 107 -37t43 -115v-378h-72v376q0 92 -85 92q-37 0 -78.5 -24t-70.5 -55v-389h-72v520zM399 705h50q-4 -40 -31.5 -73.5t-65.5 -33.5q-25 0 -78 19q-49 19 -75 19q-15 0 -28 -15t-14 -32h-50q5 48 32.5 78.5t74.5 30.5q29 0 73 -18
q44 -19 65 -19q19 0 31.5 12t15.5 32z" />
    <glyph glyph-name="ograve" unicode="&#xf2;" 
d="M391 260q0 99 -38 153.5t-103 54.5t-103 -54.5t-38 -153.5t38 -153.5t103 -54.5t103 54.5t38 153.5zM463 260q0 -118 -55.5 -194t-157.5 -76t-157.5 76t-55.5 194t55.5 194t157.5 76t157.5 -76t55.5 -194zM117 722h109l89 -142h-67z" />
    <glyph glyph-name="oacute" unicode="&#xf3;" 
d="M391 260q0 99 -38 153.5t-103 54.5t-103 -54.5t-38 -153.5t38 -153.5t103 -54.5t103 54.5t38 153.5zM463 260q0 -118 -55.5 -194t-157.5 -76t-157.5 76t-55.5 194t55.5 194t157.5 76t157.5 -76t55.5 -194zM274 722h109l-131 -142h-67z" />
    <glyph glyph-name="ocircumflex" unicode="&#xf4;" 
d="M391 260q0 99 -38 153.5t-103 54.5t-103 -54.5t-38 -153.5t38 -153.5t103 -54.5t103 54.5t38 153.5zM463 260q0 -118 -55.5 -194t-157.5 -76t-157.5 76t-55.5 194t55.5 194t157.5 76t157.5 -76t55.5 -194zM104 580l98 142h94l100 -142h-80l-67 94l-65 -94h-80z" />
    <glyph glyph-name="otilde" unicode="&#xf5;" 
d="M391 260q0 99 -38 153.5t-103 54.5t-103 -54.5t-38 -153.5t38 -153.5t103 -54.5t103 54.5t38 153.5zM463 260q0 -118 -55.5 -194t-157.5 -76t-157.5 76t-55.5 194t55.5 194t157.5 76t157.5 -76t55.5 -194zM371 705h50q-4 -40 -31.5 -73.5t-65.5 -33.5q-25 0 -78 19
q-49 19 -75 19q-15 0 -28 -15t-14 -32h-50q5 48 32.5 78.5t74.5 30.5q29 0 73 -18q44 -19 65 -19q19 0 31.5 12t15.5 32z" />
    <glyph glyph-name="odieresis" unicode="&#xf6;" 
d="M391 260q0 99 -38 153.5t-103 54.5t-103 -54.5t-38 -153.5t38 -153.5t103 -54.5t103 54.5t38 153.5zM463 260q0 -118 -55.5 -194t-157.5 -76t-157.5 76t-55.5 194t55.5 194t157.5 76t157.5 -76t55.5 -194zM373 590h-88v94h88v-94zM215 590h-88v94h88v-94z" />
    <glyph glyph-name="divide" unicode="&#xf7;" horiz-adv-x="600" 
d="M560 229h-520v62h520v-62zM238 468q0 26 18 44t44 18t44 -18t18 -44t-18 -44t-44 -18t-44 18t-18 44zM238 52q0 26 18 44t44 18t44 -18t18 -44t-18 -44t-44 -18t-44 18t-18 44z" />
    <glyph glyph-name="oslash" unicode="&#xf8;" 
d="M363 396l-189 -319q31 -25 76 -25q65 0 103 54.5t38 153.5q0 85 -28 136zM419 602h65l-82 -140q61 -75 61 -202q0 -118 -55.5 -194t-157.5 -76q-66 0 -109 31l-61 -103h-64l83 141q-62 74 -62 201q0 118 55.5 194t157.5 76q63 0 108 -31zM137 124l188 319q-31 25 -75 25
q-65 0 -103 -54.5t-38 -153.5q0 -85 28 -136z" />
    <glyph glyph-name="ugrave" unicode="&#xf9;" horiz-adv-x="556" 
d="M467 0h-72v70h-2q-71 -80 -154 -80q-64 0 -107 37t-43 115v378h72v-376q0 -92 85 -92q37 0 78.5 24t70.5 55v389h72v-520zM145 722h109l89 -142h-67z" />
    <glyph glyph-name="uacute" unicode="&#xfa;" horiz-adv-x="556" 
d="M467 0h-72v70h-2q-71 -80 -154 -80q-64 0 -107 37t-43 115v378h72v-376q0 -92 85 -92q37 0 78.5 24t70.5 55v389h72v-520zM302 722h109l-131 -142h-67z" />
    <glyph glyph-name="ucircumflex" unicode="&#xfb;" horiz-adv-x="556" 
d="M467 0h-72v70h-2q-71 -80 -154 -80q-64 0 -107 37t-43 115v378h72v-376q0 -92 85 -92q37 0 78.5 24t70.5 55v389h72v-520zM132 580l98 142h94l100 -142h-80l-67 94l-65 -94h-80z" />
    <glyph glyph-name="udieresis" unicode="&#xfc;" horiz-adv-x="556" 
d="M467 0h-72v70h-2q-71 -80 -154 -80q-64 0 -107 37t-43 115v378h72v-376q0 -92 85 -92q37 0 78.5 24t70.5 55v389h72v-520zM401 590h-88v94h88v-94zM243 590h-88v94h88v-94z" />
    <glyph glyph-name="yacute" unicode="&#xfd;" horiz-adv-x="444" 
d="M352 520h76l-183 -566q-48 -146 -175 -146q-10 0 -52 6v59q30 -3 39 -3q109 0 136 124l-181 526h76l140 -397h2zM246 722h109l-131 -142h-67z" />
    <glyph glyph-name="thorn" unicode="&#xfe;" horiz-adv-x="556" 
d="M160 -192h-72v914h72v-263h2q21 30 59.5 50.5t75.5 20.5t72.5 -13.5t68 -43t52.5 -84.5t20 -129q0 -72 -20 -127t-52 -84.5t-67 -44t-70 -14.5q-67 0 -137 58l-4 2v-242zM160 398v-274q65 -72 131 -72q147 0 147 212q0 98 -39.5 151t-107.5 53q-34 0 -63 -16t-68 -54z
" />
    <glyph glyph-name="ydieresis" unicode="&#xff;" horiz-adv-x="444" 
d="M352 520h76l-183 -566q-48 -146 -175 -146q-10 0 -52 6v59q30 -3 39 -3q109 0 136 124l-181 526h76l140 -397h2zM345 590h-88v94h88v-94zM187 590h-88v94h88v-94z" />
    <glyph glyph-name="dotlessi" unicode="&#x131;" horiz-adv-x="278" 
d="M103 0v520h72v-520h-72z" />
    <glyph glyph-name="Lslash" unicode="&#x141;" horiz-adv-x="556" 
d="M188 337v-269h342v-68h-422v305l-92 -37v68l92 37v349h80v-317l192 78v-68z" />
    <glyph glyph-name="lslash" unicode="&#x142;" horiz-adv-x="278" 
d="M175 392v-392h-72v355l-89 -46v68l89 46v299h72v-262l89 45v-68z" />
    <glyph glyph-name="OE" unicode="&#x152;" horiz-adv-x="1000" 
d="M963 68v-68h-451q-31 0 -78 -5q-68 -5 -88 -5q-81 0 -141.5 28t-97 79.5t-54 117t-17.5 146.5t17.5 146.5t54 117t97 79.5t141.5 28q43 0 88 -5q70 -5 78 -5h431v-68h-353v-242h251v-68h-251v-276h373zM510 188v346q0 71 -41 100.5t-125 29.5q-228 0 -228 -303t228 -303
q84 0 125 29.5t41 100.5z" />
    <glyph glyph-name="oe" unicode="&#x153;" horiz-adv-x="778" 
d="M95 260q0 -99 33.5 -153.5t95.5 -54.5q65 0 98.5 54t33.5 154q0 208 -132 208q-62 0 -95.5 -54.5t-33.5 -153.5zM748 246h-320q0 -194 136 -194q46 0 81.5 23.5t52.5 64.5l56 -29q-53 -121 -190 -121q-126 0 -172 95q-56 -95 -168 -95q-90 0 -145.5 73t-55.5 197
t55.5 197t145.5 73q110 0 168 -93q44 93 166 93q81 0 135.5 -59.5t54.5 -176.5v-48zM430 308h246q0 73 -33 116.5t-91 43.5q-119 0 -122 -160z" />
    <glyph glyph-name="Scaron" unicode="&#x160;" horiz-adv-x="611" 
d="M520 554l-72 -16q-14 56 -57.5 91t-110.5 35q-63 0 -98.5 -29t-36.5 -83q0 -32 22 -56.5t57.5 -41.5t79 -32.5t87 -34t79.5 -41.5t58.5 -60t22.5 -84q0 -90 -58 -151t-185 -61q-56 0 -100.5 16.5t-74.5 46.5t-48 58.5t-35 66.5l73 26q56 -146 189 -146q77 0 118 36t41 94
q0 50 -42 85t-101.5 56t-119 44.5t-101.5 66.5t-42 106q0 79 60.5 132.5t156.5 53.5q86 0 148 -45t90 -133zM160 902h80l65 -94l67 94h80l-100 -142h-94z" />
    <glyph glyph-name="scaron" unicode="&#x161;" horiz-adv-x="444" 
d="M24 89l57 43q56 -80 149 -80q55 0 83.5 25t28.5 61t-31.5 58t-76.5 34t-90 26.5t-75.5 47.5t-28.5 86q2 67 49 104t123 36q51 -1 101.5 -26.5t76.5 -64.5l-50 -44q-31 38 -62 55.5t-72 17.5q-45 0 -69.5 -21t-24.5 -56q0 -31 31 -50t75.5 -31.5t89 -28t75.5 -50.5t31 -89
q0 -72 -53 -112t-129 -40q-62 0 -117.5 26t-90.5 73zM76 722h80l65 -94l67 94h80l-100 -142h-94z" />
    <glyph glyph-name="Ydieresis" unicode="&#x178;" horiz-adv-x="556" 
d="M238 0v304l-222 418h88l174 -331l174 331h88l-222 -418v-304h-80zM401 770h-88v94h88v-94zM243 770h-88v94h88v-94z" />
    <glyph glyph-name="Zcaron" unicode="&#x17d;" horiz-adv-x="556" 
d="M511 68v-68h-466v58l362 596h-329v68h429v-52l-368 -602h372zM132 902h80l65 -94l67 94h80l-100 -142h-94z" />
    <glyph glyph-name="zcaron" unicode="&#x17e;" horiz-adv-x="444" 
d="M414 62v-62h-384v52l284 406h-256v62h354v-52l-284 -406h286zM76 722h80l65 -94l67 94h80l-100 -142h-94z" />
    <glyph glyph-name="florin" unicode="&#x192;" horiz-adv-x="611" 
d="M53 -186l11 66q20 -10 48 -10q46 0 65.5 22t29.5 78l78 430h-114v60h126l11 58q23 118 64.5 166t121.5 48q36 0 55 -8l-17 -65q-20 11 -45 11q-40 0 -61.5 -32.5t-40.5 -121.5l-11 -54h116v-62h-127l-82 -421q-17 -87 -57 -129t-122 -42q-17 0 -49 6z" />
    <glyph glyph-name="circumflex" unicode="&#x2c6;" horiz-adv-x="278" 
d="M-7 580l98 142h94l100 -142h-80l-67 94l-65 -94h-80z" />
    <glyph glyph-name="caron" unicode="&#x2c7;" horiz-adv-x="278" 
d="M-7 722h80l65 -94l67 94h80l-100 -142h-94z" />
    <glyph glyph-name="uni02C9" unicode="&#x2c9;" horiz-adv-x="278" 
d="M295 612h-312v60h312v-60z" />
    <glyph glyph-name="breve" unicode="&#x2d8;" horiz-adv-x="278" 
d="M244 720h49q-9 -67 -49 -101.5t-105 -34.5t-105 34.5t-49 101.5h49q16 -78 105 -78t105 78z" />
    <glyph glyph-name="dotaccent" unicode="&#x2d9;" horiz-adv-x="278" 
d="M183 590h-88v94h88v-94z" />
    <glyph glyph-name="ring" unicode="&#x2da;" horiz-adv-x="278" 
d="M39 680q0 41 29.5 70.5t70.5 29.5t70.5 -29.5t29.5 -70.5t-29.5 -70.5t-70.5 -29.5t-70.5 29.5t-29.5 70.5zM83 680q0 -23 16.5 -39.5t39.5 -16.5t39.5 16.5t16.5 39.5t-16.5 39.5t-39.5 16.5t-39.5 -16.5t-16.5 -39.5z" />
    <glyph glyph-name="ogonek" unicode="&#x2db;" horiz-adv-x="278" 
d="M263 -123l16 -30q-70 -57 -151 -57q-47 0 -72 23.5t-25 64.5q0 104 224 141v-10q-148 -51 -148 -122q0 -51 58 -51q34 0 98 41z" />
    <glyph glyph-name="tilde" unicode="&#x2dc;" horiz-adv-x="278" 
d="M260 705h50q-4 -40 -31.5 -73.5t-65.5 -33.5q-25 0 -78 19q-49 19 -75 19q-15 0 -28 -15t-14 -32h-50q5 48 32.5 78.5t74.5 30.5q29 0 73 -18q44 -19 65 -19q19 0 31.5 12t15.5 32z" />
    <glyph glyph-name="hungarumlaut" unicode="&#x2dd;" horiz-adv-x="278" 
d="M89 722h107l-123 -142h-63zM239 722h109l-131 -142h-67z" />
    <glyph glyph-name="uni03A9" unicode="&#x3a9;" horiz-adv-x="798" 
d="M225 54v3q-67 53 -110 136t-43 187q0 151 95 248.5t235 97.5q141 0 232 -101t91 -241q0 -107 -45 -193t-110 -134v-3h170v-54h-259v40q74 43 125 129.5t51 203.5q-1 72 -28.5 138t-87.5 113t-140 47q-116 0 -188.5 -87t-72.5 -213q0 -111 51.5 -200t123.5 -131v-40h-258
v54h168z" />
    <glyph glyph-name="uni03BC" unicode="&#x3bc;" horiz-adv-x="556" 
d="M467 0h-72v70h-2q-71 -80 -154 -80q-43 0 -78 16v-198h-72v712h72v-376q0 -92 85 -92q37 0 78.5 24t70.5 55v389h72v-520z" />
    <glyph glyph-name="pi" unicode="&#x3c0;" horiz-adv-x="616" 
d="M587 474h-92v-320q0 -103 17 -154h-66q-18 29 -18 146v328h-212q-5 -111 -29.5 -259.5t-52.5 -214.5h-67q30 77 53.5 218.5t28.5 255.5q-87 0 -127 -14l-12 44q49 26 152 26h432z" />
    <glyph glyph-name="endash" unicode="&#x2013;" 
d="M0 235v50h500v-50h-500z" />
    <glyph glyph-name="emdash" unicode="&#x2014;" horiz-adv-x="1000" 
d="M0 235v50h1000v-50h-1000z" />
    <glyph glyph-name="quoteleft" unicode="&#x2018;" horiz-adv-x="278" 
d="M87 480v110l63 142h42l-47 -142h40v-110h-98z" />
    <glyph glyph-name="quoteright" unicode="&#x2019;" horiz-adv-x="278" 
d="M191 722v-110l-63 -142h-42l47 142h-40v110h98z" />
    <glyph glyph-name="quotesinglbase" unicode="&#x201a;" horiz-adv-x="278" 
d="M191 110v-110l-63 -142h-42l47 142h-40v110h98z" />
    <glyph glyph-name="quotedblleft" unicode="&#x201c;" 
d="M103 480v110l63 142h42l-47 -142h40v-110h-98zM307 480v110l63 142h42l-47 -142h40v-110h-98z" />
    <glyph glyph-name="quotedblright" unicode="&#x201d;" 
d="M397 722v-110l-63 -142h-42l47 142h-40v110h98zM193 722v-110l-63 -142h-42l47 142h-40v110h98z" />
    <glyph glyph-name="quotedblbase" unicode="&#x201e;" 
d="M397 110v-110l-63 -142h-42l47 142h-40v110h98zM193 110v-110l-63 -142h-42l47 142h-40v110h98z" />
    <glyph glyph-name="dagger" unicode="&#x2020;" 
d="M210 732h80l-24 -208l160 22v-78l-160 26l24 -174l-24 -404h-32l-24 404l24 174l-160 -26v78l160 -22z" />
    <glyph glyph-name="daggerdbl" unicode="&#x2021;" 
d="M266 494l24 -170l-24 -170l160 26v-78l-160 22l24 -208h-80l24 208l-160 -22v78l160 -26l-24 170l24 170l-160 -26v78l160 -22l-24 208h80l-24 -208l160 22v-78z" />
    <glyph glyph-name="bullet" unicode="&#x2022;" 
d="M69 361q0 75 52.5 127.5t127.5 52.5t128 -52.5t53 -127.5t-53 -128t-128 -53t-127.5 53t-52.5 128z" />
    <glyph glyph-name="ellipsis" unicode="&#x2026;" horiz-adv-x="1000" 
d="M118 110h98v-110h-98v110zM451 110h98v-110h-98v110zM784 110h98v-110h-98v110z" />
    <glyph glyph-name="perthousand" unicode="&#x2030;" horiz-adv-x="1000" 
d="M689 148q0 61 44 104.5t104 43.5t104 -43.5t44 -104.5t-44 -104.5t-104 -43.5t-104 43.5t-44 104.5zM747 148q0 -36 26.5 -63t63.5 -27q33 0 61.5 26t28.5 64t-28.5 64t-61.5 26t-61.5 -26t-28.5 -64zM327 148q0 61 44 104.5t104 43.5t104 -43.5t44 -104.5t-44 -104.5
t-104 -43.5t-104 43.5t-44 104.5zM385 148q0 -36 26.5 -63t63.5 -27q33 0 61.5 26t28.5 64t-28.5 64t-61.5 26t-61.5 -26t-28.5 -64zM15 574q0 61 44 104.5t104 43.5t104 -43.5t44 -104.5t-44 -104.5t-104 -43.5t-104 43.5t-44 104.5zM73 574q0 -36 26.5 -63t63.5 -27
q33 0 61.5 26t28.5 64t-28.5 64t-61.5 26t-61.5 -26t-28.5 -64zM548 732l-401 -742h-59l399 742h61z" />
    <glyph glyph-name="guilsinglleft" unicode="&#x2039;" horiz-adv-x="333" 
d="M184 418h70l-129 -158l129 -158h-68l-132 158z" />
    <glyph glyph-name="guilsinglright" unicode="&#x203a;" horiz-adv-x="333" 
d="M79 418h70l130 -158l-132 -158h-68l129 158z" />
    <glyph glyph-name="fraction" unicode="&#x2044;" horiz-adv-x="167" 
d="M-108 -10h-59l439 742h62z" />
    <glyph glyph-name="Euro" unicode="&#x20ac;" horiz-adv-x="611" 
d="M566 628l-28 -82q-10 18 -22.5 35.5t-34.5 39.5t-54.5 35.5t-69.5 13.5q-46 0 -81 -20t-54.5 -53.5t-29 -69.5t-10.5 -75h324l-21 -62h-301v-88h271l-21 -62h-250q2 -80 52.5 -134t123.5 -54q46 0 83.5 17t55.5 34.5t39 44.5v-83q-67 -75 -177 -75q-108 0 -175.5 71
t-76.5 179h-83l21 62h62v88h-83l21 62h62q0 117 67.5 198.5t180.5 81.5q136 0 209 -104z" />
    <glyph glyph-name="afii61289" unicode="&#x2113;" horiz-adv-x="521" 
d="M460 154l35 -28q-71 -131 -200 -131q-85 0 -128.5 54.5t-47.5 137.5v13q-11 -8 -32.5 -25.5t-31.5 -25.5l-22 40q84 70 85 71v286q0 130 47 187.5t114 57.5q64 0 98 -47t34 -118q0 -94 -59 -187t-170 -196v-29q1 -83 37 -124.5t89 -41.5q49 0 89 31.5t63 74.5zM182 555
v-246q86 88 132.5 163.5t46.5 150.5q0 118 -83 118q-38 0 -67 -45t-29 -141z" />
    <glyph glyph-name="trademark" unicode="&#x2122;" horiz-adv-x="990" 
d="M376 722v-54h-128v-358h-68v358h-126v54h322zM504 654v-344h-68v412h105l124 -312l120 312h105v-412h-68v344h-2l-135 -344h-44l-135 344h-2z" />
    <glyph glyph-name="Omega" unicode="&#x2126;" horiz-adv-x="798" 
d="M225 54v3q-67 53 -110 136t-43 187q0 151 95 248.5t235 97.5q141 0 232 -101t91 -241q0 -107 -45 -193t-110 -134v-3h170v-54h-259v40q74 43 125 129.5t51 203.5q-1 72 -28.5 138t-87.5 113t-140 47q-116 0 -188.5 -87t-72.5 -213q0 -111 51.5 -200t123.5 -131v-40h-258
v54h168z" />
    <glyph glyph-name="estimated" unicode="&#x212e;" horiz-adv-x="895" 
d="M859 351h-667q-6 0 -6 -5v-202q0 -12 9 -23q107 -110 252 -110q158 0 266 123h59q-56 -66 -142 -104.5t-184 -38.5q-170 0 -290.5 108t-120.5 261q0 154 120.5 263t290.5 109q172 0 292.5 -108.5t120.5 -263.5v-9zM707 377v203q0 15 -9 24q-108 106 -251 106
q-144 0 -251 -109q-10 -10 -10 -25v-199q0 -7 6 -7h511q4 0 4 7z" />
    <glyph glyph-name="partialdiff" unicode="&#x2202;" horiz-adv-x="588" 
d="M110 698l-25 47q74 57 178 57q112 0 191 -101.5t79 -285.5q0 -116 -30 -209.5t-95 -152.5t-155 -59q-99 0 -152.5 71.5t-53.5 165.5q0 114 67.5 186t161.5 72q69 0 119 -36.5t70 -72.5h1q1 13 1 49q0 142 -61.5 230.5t-148.5 88.5q-82 0 -147 -50zM258 48h2
q78 0 130.5 77t65.5 187q-16 44 -62 83.5t-108 39.5q-70 0 -121 -59.5t-51 -143.5q0 -79 40 -131.5t104 -52.5z" />
    <glyph glyph-name="Delta" unicode="&#x2206;" horiz-adv-x="708" 
d="M34 0v49l282 686h78l279 -686v-49h-639zM103 54h497l-169 414q-6 17 -37 92t-39 102h-5q-6 -21 -34 -90t-34 -86z" />
    <glyph glyph-name="product" unicode="&#x220f;" horiz-adv-x="758" 
d="M730 655h-124v-754h-65v754h-324v-754h-66v754h-123v59h702v-59z" />
    <glyph glyph-name="summation" unicode="&#x2211;" horiz-adv-x="603" 
d="M578 -99h-554v44l300 361l-286 362v46h524v-57h-428v-4l269 -339l-289 -347v-3h464v-63z" />
    <glyph glyph-name="minus" unicode="&#x2212;" horiz-adv-x="600" 
d="M560 229h-520v62h520v-62z" />
    <glyph glyph-name="uni2215" unicode="&#x2215;" horiz-adv-x="167" 
d="M-108 -10h-59l439 742h62z" />
    <glyph glyph-name="uni2219" unicode="&#x2219;" horiz-adv-x="305" 
d="M90 259q0 27 17.5 45t44.5 18q26 0 44 -18.5t18 -44.5q0 -25 -18 -43t-44 -18q-27 0 -44.5 17.5t-17.5 43.5z" />
    <glyph glyph-name="radical" unicode="&#x221a;" horiz-adv-x="614" 
d="M614 847l-242 -1002h-62l-177 480l-81 -30l-15 41l138 54l147 -401q3 -11 18 -68l1 -1q3 17 14 69l207 858h52z" />
    <glyph glyph-name="infinity" unicode="&#x221e;" horiz-adv-x="831" 
d="M775 297v-1q0 -73 -47.5 -119.5t-113.5 -46.5q-48 0 -90.5 30t-106.5 99q-28 -31 -45 -48t-44 -39t-55.5 -32t-59.5 -10q-64 0 -111 47.5t-47 115.5q0 71 47.5 118t118.5 47q54 0 99.5 -34t100.5 -96q64 71 95 93q51 37 106 37q69 0 111 -44.5t42 -116.5zM220 174h1
q17 0 34.5 6t30.5 13.5t30.5 22.5t26 23.5t26.5 27.5t23 24q-58 69 -85 89q-46 36 -94 36q-50 0 -80 -36.5t-30 -88.5q1 -49 33 -83t84 -34zM617 416h-1q-26 0 -54 -15t-44 -29t-42.5 -42.5t-31.5 -33.5q64 -68 99 -95t76 -27q49 0 79 36t30 83q0 57 -31 90t-80 33z" />
    <glyph glyph-name="integral" unicode="&#x222b;" horiz-adv-x="372" 
d="M358 855l-13 -46q-15 12 -41 12q-35 0 -55 -23q-38 -43 -38 -186q0 -78 7 -257.5t7 -261.5q0 -141 -47 -206q-33 -49 -99 -49q-41 0 -68 18l13 48q25 -14 50 -14q31 0 51 23q40 51 40 181q0 83 -7.5 264.5t-7.5 260.5q0 84 12.5 134t43.5 80q37 38 94 38q33 0 58 -16z
" />
    <glyph glyph-name="approxequal" unicode="&#x2248;" horiz-adv-x="617" 
d="M534 442l28 -26q-53 -98 -137 -98q-21 0 -43 6.5t-37.5 14t-48.5 25.5q-68 36 -104 36q-35 0 -59.5 -21t-50.5 -59l-30 25q53 99 148 99q18 0 38 -5.5t29.5 -10t31.5 -17t23 -12.5q5 -3 18 -9.5l18 -9t15.5 -7t17.5 -6.5t17 -3.5t20 -1.5q33 0 57 19t49 61zM534 263
l28 -26q-53 -97 -137 -97q-21 0 -43 6.5t-37.5 14t-48.5 25.5q-68 36 -104 36q-35 0 -59.5 -20.5t-50.5 -59.5l-30 25q53 99 147 99q19 0 38.5 -5.5t30.5 -10.5t30.5 -16t23.5 -13q5 -3 17.5 -9.5t17.5 -9t15.5 -7t18 -6.5t17.5 -3.5t20 -1.5q33 0 57 18.5t49 60.5z" />
    <glyph glyph-name="notequal" unicode="&#x2260;" horiz-adv-x="617" 
d="M433 525l-51 -109h178v-45h-197l-75 -160h272v-45h-292l-60 -129l-37 17l53 112h-168v45h188l75 160h-263v45h282l59 126z" />
    <glyph glyph-name="lessequal" unicode="&#x2264;" horiz-adv-x="617" 
d="M557 92l-495 240v47l495 239v-54l-444 -207v-2l444 -209v-54zM559 2h-503v46h503v-46z" />
    <glyph glyph-name="greaterequal" unicode="&#x2265;" horiz-adv-x="617" 
d="M63 618l494 -239v-48l-494 -239v54l443 208v2l-443 208v54zM559 2h-502v46h502v-46z" />
    <glyph glyph-name="lozenge" unicode="&#x25ca;" horiz-adv-x="615" 
d="M554 357l-221 -406h-54l-219 406l220 406h54zM492 355l-164 302q-15 30 -21 51h-2q-8 -26 -22 -51l-162 -299l165 -303q16 -33 20 -50h3q9 29 19 49z" />
    </font>
</defs>
</svg>
